<?xml version="1.0" encoding="UTF-8"?><svg id="a" xmlns="http://www.w3.org/2000/svg" viewBox="0 0 560 560"><defs><style>.b{fill:#fb603b;}.c{fill:#fbb03b;}</style></defs><g><path class="b" d="M79.64,317c.25-4.54,.54-9.11,.86-13.71,2.12-30.06,5.67-58.78,10.28-86.1,3.93-.95,7.87-1.9,11.8-2.85l25.25,52.39c5.85,12.14,10.41,23.05,14.15,33.65l.23-.15c-.94-13.83-1.17-26.43-1.17-42.56-.64-17.62-1.29-35.24-1.93-52.86,5.73,8.29,11.45,16.58,17.18,24.88-1.36,34.36-2.73,68.73-4.09,103.09-3.95-4.96-7.9-9.92-11.86-14.88-.55-3.49-1.66-9.12-4.04-15.68-8.02-22.12-20.88-28.38-29.8-49.74-1.97-4.7-4.51-11.99-5.91-21.7l-.35,.16c.94,11.65,1.54,18.88,1.57,18.88,.04,0-1.02-14.09-1.02-14.09h0c-1.39,27.39-2.79,54.78-4.18,82.17l-16.96-.89Z"/><path class="b" d="M197.23,250.14c-2.17,4.86-4.16,10.38-5.61,16.53-6.24,26.31,.65,49.13,5.61,61.43h-17.7v-77.96h17.7Z"/><path class="b" d="M426.9,204.8c-3.35,28.86-6.71,57.71-10.06,86.57-9.08,1.25-18.16,2.5-27.24,3.75,5.69-5.42,25.24-25.36,25.1-54.17-.04-8.32-1.72-15.52-3.71-21.25,5.3-4.96,10.61-9.93,15.91-14.89Z"/><path class="b" d="M421.68,318.82c-31.9,8.94-33.4,19.72-57.44,27.77-42.4,14.2-84.32-3.72-114.93-16.81-21.22-9.07-42.46-18.38-43.83-33.18-1.76-18.9,29.82-33.24,31.15-33.83,35.91-15.77,63.09,2.05,127.94-11.68,13.6-2.88,25.25-6.38,29.61-3.28,6.81,4.84-9.74,21.86-25.09,35.7l-14.98,6.86c-4.09-2.51-10.14-5.98-17.77-9.48-9.97-4.58-28.94-13.07-53.39-14.22-18.03-.85-38.32-1.8-46.71,10.83-5.43,8.19-4.42,19.89,.35,27.95,6.11,10.33,18.05,13.39,28.38,16.3,31.78,8.97,79.22,7.73,109.46,1.88,36.37-7.04,67.65-24.56,71.39-35.79,.53-1.59,1.83-7.04,10.2-8.11,5.06-.64,10.98,.54,15.16,1.63-2.84,6.29-7.83,15.03-16.73,22.54-11.6,9.79-23.76,12.37-32.77,14.9Z"/></g><g><path class="c" d="M83.02,318.25c.25-4.44,.54-8.9,.86-13.4,2.13-29.36,5.7-57.42,10.33-84.11,3.96-.93,7.91-1.86,11.87-2.78l25.4,51.18c5.88,11.86,10.46,22.51,14.23,32.87l.23-.15c-.94-13.51-1.18-25.82-1.18-41.58-.65-17.21-1.29-34.43-1.94-51.64,5.76,8.1,11.52,16.2,17.28,24.3-1.37,33.57-2.74,67.14-4.12,100.71-3.97-4.84-7.95-9.69-11.92-14.53-.56-3.41-1.67-8.91-4.06-15.32-8.06-21.61-21-27.73-29.97-48.59-1.98-4.6-4.54-11.71-5.94-21.2l-.35,.15h0l.35-.15-.35,.15c-1.22,28.32-2.44,56.64-3.66,84.95-5.69-.29-11.37-.58-17.06-.87Z"/><path class="c" d="M201.29,252.94c-2.19,4.75-4.18,10.14-5.65,16.15-6.28,25.7,.65,48,5.65,60.01h-17.8v-76.16h17.8Z"/><path class="c" d="M432.28,208.65c-3.37,28.19-6.74,56.38-10.12,84.57-9.13,1.22-18.26,2.44-27.39,3.66,5.73-5.3,25.39-24.77,25.24-52.92-.04-8.13-1.73-15.16-3.73-20.76,5.33-4.85,10.67-9.7,16-14.55Z"/><path class="c" d="M427.03,320.03c-32.08,8.74-33.59,19.27-57.77,27.13-42.65,13.87-84.81-3.64-115.59-16.42-21.34-8.86-42.7-17.96-44.08-32.41-1.77-18.46,30-32.48,31.33-33.05,36.11-15.41,63.46,2,128.67-11.41,13.68-2.81,25.4-6.24,29.78-3.21,6.85,4.73-9.8,21.35-25.23,34.88l-15.06,6.7c-4.11-2.45-10.19-5.84-17.88-9.26-10.03-4.47-29.1-12.77-53.69-13.89-18.14-.83-38.54-1.76-46.98,10.58-5.46,8-4.45,19.43,.35,27.31,6.15,10.1,18.15,13.08,28.54,15.93,31.96,8.76,79.67,7.55,110.09,1.84,36.58-6.87,68.04-24,71.8-34.96,.53-1.56,1.85-6.88,10.26-7.92,5.09-.63,11.04,.53,15.25,1.59-2.86,6.14-7.88,14.68-16.83,22.02-11.66,9.56-23.9,12.09-32.95,14.55Z"/></g></svg>